<?xml version="1.0" encoding="UTF-8"?> <svg xmlns="http://www.w3.org/2000/svg" width="345" height="189" viewBox="0 0 345 189" fill="none"><path d="M120.591 151.097L83.1367 188.551L83.3607 96.703C83.3607 96.703 82.9852 85.9613 85.6545 79.0938C88.6466 71.3962 98.3722 62.8823 98.3722 62.8823L151.479 9.77539C151.479 9.77539 153.436 29.9001 149.383 44.2949C147.597 50.6376 141.065 58.136 134.674 64.2798C127.581 71.5471 126.882 72.3856 123.388 79.0938C120.06 85.4834 120.593 94.7464 120.593 94.7464L120.591 151.097Z" fill="#488D07"></path><path d="M75.7264 139.755L49.4302 115.195C47.212 113.124 45.1072 110.914 43.5604 108.303C41.9409 105.569 40.0513 101.669 39.5302 97.6887C38.5302 90.0501 38.9568 81.7762 41.6261 74.9087C44.6182 67.211 54.0643 58.1381 54.0643 58.1381L111.364 0V28.7895C110.948 32.622 109.893 35.6383 108.988 38.8519C107.202 45.1946 96.1984 55.6279 89.8072 61.7717C82.7141 69.039 82.0154 69.8775 78.5215 76.5857C75.1936 82.9753 75.7264 92.2383 75.7264 92.2383V139.755Z" fill="#C40D1A"></path><path d="M154.666 171.258V153.348H169.633V157.262H159.655V160.154H164.286C166.469 160.154 168.132 160.614 169.275 161.535C170.435 162.456 171.015 163.787 171.015 165.527C171.015 167.318 170.367 168.725 169.07 169.748C167.774 170.755 165.957 171.258 163.621 171.258H154.666ZM159.655 167.625H163.288C164.124 167.625 164.763 167.454 165.207 167.113C165.667 166.772 165.898 166.286 165.898 165.655C165.898 164.392 165.028 163.761 163.288 163.761H159.655V167.625ZM179.566 160.282H187.881V164.068H179.566V160.282ZM179.924 167.343H189.288V171.258H174.909V153.348H188.956V157.262H179.924V167.343ZM194.196 171.565C193.855 171.565 193.488 171.539 193.096 171.488C192.72 171.437 192.32 171.36 191.893 171.258L192.175 167.113C192.413 167.164 192.644 167.19 192.865 167.19C193.565 167.19 194.093 166.917 194.452 166.371C194.81 165.808 195.057 165.023 195.194 164.017C195.347 163.011 195.441 161.834 195.475 160.486L195.731 153.348H210.161V171.258H205.172V156.239L206.272 157.365H199.032L200.055 156.188L199.927 160.282C199.876 162.021 199.756 163.591 199.569 164.989C199.381 166.371 199.083 167.556 198.673 168.546C198.264 169.518 197.693 170.268 196.959 170.797C196.243 171.309 195.322 171.565 194.196 171.565ZM213.481 171.258L221.387 153.348H226.376L234.307 171.258H229.037L222.845 155.83H224.841L218.649 171.258H213.481ZM217.805 167.778L219.109 164.043H227.86L229.165 167.778H217.805ZM246.669 171.258V165.706L247.871 166.755H243.343C241.739 166.755 240.358 166.49 239.198 165.962C238.038 165.433 237.142 164.674 236.511 163.684C235.897 162.695 235.59 161.518 235.59 160.154C235.59 158.738 235.914 157.527 236.562 156.52C237.228 155.497 238.157 154.712 239.351 154.167C240.562 153.621 241.978 153.348 243.598 153.348H251.658V171.258H246.669ZM235.641 171.258L240.119 164.785H245.21L240.963 171.258H235.641ZM246.669 164.094V156.085L247.871 157.339H243.701C242.711 157.339 241.961 157.569 241.449 158.03C240.955 158.473 240.707 159.156 240.707 160.077C240.707 160.981 240.955 161.672 241.449 162.149C241.961 162.61 242.694 162.84 243.65 162.84H247.871L246.669 164.094ZM265.509 171.258V153.348H273.696C275.333 153.348 276.741 153.612 277.918 154.141C279.112 154.67 280.033 155.437 280.681 156.444C281.329 157.433 281.653 158.61 281.653 159.975C281.653 161.322 281.329 162.49 280.681 163.48C280.033 164.469 279.112 165.237 277.918 165.782C276.741 166.311 275.333 166.576 273.696 166.576H268.323L270.574 164.375V171.258H265.509ZM270.574 164.913L268.323 162.584H273.389C274.446 162.584 275.231 162.354 275.743 161.893C276.272 161.433 276.536 160.793 276.536 159.975C276.536 159.139 276.272 158.491 275.743 158.03C275.231 157.569 274.446 157.339 273.389 157.339H268.323L270.574 155.011V164.913ZM285.851 167.241C286.858 167.531 287.676 167.625 288.307 167.522C288.956 167.403 289.527 166.976 290.022 166.243L290.892 164.964L291.326 164.478L296.904 153.348H301.842L294.422 167.19C293.689 168.554 292.81 169.612 291.787 170.362C290.781 171.113 289.672 171.539 288.461 171.642C287.25 171.744 285.979 171.522 284.649 170.976L285.851 167.241ZM291.25 168.546L283.062 153.348H288.41L294.013 164.964L291.25 168.546ZM313.221 171.616C311.806 171.616 310.492 171.394 309.281 170.951C308.087 170.49 307.047 169.842 306.16 169.006C305.29 168.17 304.608 167.19 304.113 166.064C303.618 164.921 303.371 163.667 303.371 162.303C303.371 160.938 303.618 159.693 304.113 158.567C304.608 157.424 305.29 156.435 306.16 155.599C307.047 154.764 308.087 154.124 309.281 153.68C310.492 153.22 311.806 152.99 313.221 152.99C314.876 152.99 316.351 153.28 317.648 153.86C318.961 154.439 320.053 155.275 320.923 156.367L317.699 159.284C317.119 158.601 316.479 158.081 315.78 157.723C315.098 157.365 314.33 157.186 313.477 157.186C312.744 157.186 312.07 157.305 311.456 157.544C310.842 157.783 310.313 158.132 309.87 158.593C309.443 159.036 309.102 159.574 308.846 160.205C308.607 160.836 308.488 161.535 308.488 162.303C308.488 163.07 308.607 163.77 308.846 164.401C309.102 165.032 309.443 165.578 309.87 166.038C310.313 166.482 310.842 166.823 311.456 167.062C312.07 167.301 312.744 167.42 313.477 167.42C314.33 167.42 315.098 167.241 315.78 166.883C316.479 166.524 317.119 166.004 317.699 165.322L320.923 168.239C320.053 169.313 318.961 170.149 317.648 170.746C316.351 171.326 314.876 171.616 313.221 171.616ZM333.625 159.053C335.808 159.053 337.497 159.54 338.691 160.512C339.902 161.484 340.507 162.942 340.507 164.887C340.507 166.985 339.833 168.571 338.486 169.646C337.138 170.721 335.296 171.258 332.959 171.258H324.491V153.348H329.48V159.053H333.625ZM332.627 167.625C333.48 167.625 334.153 167.394 334.648 166.934C335.16 166.473 335.416 165.825 335.416 164.989C335.416 164.136 335.16 163.539 334.648 163.198C334.153 162.84 333.48 162.661 332.627 162.661H329.48V167.625H332.627Z" fill="#488D07"></path><path d="M155.285 139.846V111.874H181.539V139.846H173.707V116.389L175.465 118.148H161.359L163.078 116.389V139.846H155.285ZM186.719 139.846L199.067 111.874H206.859L219.246 139.846H211.015L201.344 115.75H204.461L194.791 139.846H186.719ZM193.472 134.411L195.51 128.577H209.176L211.214 134.411H193.472ZM224.45 139.846V111.874H237.237C239.794 111.874 241.992 112.287 243.83 113.113C245.695 113.939 247.133 115.137 248.146 116.709C249.158 118.254 249.664 120.092 249.664 122.224C249.664 124.328 249.158 126.153 248.146 127.698C247.133 129.243 245.695 130.442 243.83 131.294C241.992 132.12 239.794 132.533 237.237 132.533H228.845L232.362 129.097V139.846H224.45ZM232.362 129.936L228.845 126.299H236.757C238.409 126.299 239.634 125.94 240.434 125.221C241.259 124.501 241.672 123.502 241.672 122.224C241.672 120.918 241.259 119.906 240.434 119.187C239.634 118.467 238.409 118.108 236.757 118.108H228.845L232.362 114.471V129.936ZM260.738 139.846V116.389L262.496 118.148H252.147V111.874H277.081V118.148H266.772L268.53 116.389V139.846H260.738ZM282.727 139.846V111.874H290.519V128.297L302.067 111.874H309.5V139.846H301.707V123.462L290.199 139.846H282.727ZM333.128 139.846V131.174L335.006 132.813H327.933C325.429 132.813 323.271 132.4 321.46 131.574C319.648 130.748 318.25 129.563 317.264 128.018C316.305 126.473 315.826 124.634 315.826 122.503C315.826 120.292 316.332 118.401 317.344 116.829C318.383 115.231 319.835 114.005 321.7 113.153C323.591 112.3 325.802 111.874 328.333 111.874H340.92V139.846H333.128ZM315.906 139.846L322.898 129.736H330.85L324.217 139.846H315.906ZM333.128 128.657V116.15L335.006 118.108H328.493C326.948 118.108 325.776 118.467 324.976 119.187C324.204 119.879 323.818 120.945 323.818 122.383C323.818 123.795 324.204 124.874 324.976 125.62C325.776 126.339 326.921 126.699 328.413 126.699H335.006L333.128 128.657Z" fill="#C40D1A"></path><path d="M75.1757 188.509V149.047L41.4839 118.458C28.7371 106.885 27.0973 87.43 37.7271 73.8867L11.4509 107.365C5.02 115.558 6.08771 127.344 13.8864 134.248L75.1757 188.509Z" fill="#488D07"></path></svg> 