<svg xmlns="http://www.w3.org/2000/svg" width="40" height="22"><path d="m13.98 17.59-4.34 4.36.024-10.692s-.043-1.25.266-2.051c.347-.895 1.476-1.887 1.476-1.887l6.156-6.183s.227 2.343-.242 4.02c-.207.738-.965 1.609-1.707 2.323-.82.848-.902.946-1.308 1.727-.383.742-.325 1.82-.325 1.82Zm0 0" style="stroke:none;fill-rule:nonzero;fill:#488d07;fill-opacity:1"/><path d="m8.781 16.27-3.05-2.86c-.258-.242-.5-.5-.68-.805-.188-.316-.406-.77-.469-1.234-.113-.89-.066-1.851.246-2.652.344-.895 1.442-1.953 1.442-1.953L12.91 0v3.352c-.047.445-.168.796-.273 1.171-.207.739-1.485 1.954-2.223 2.668-.824.844-.906.942-1.309 1.723-.386.746-.324 1.824-.324 1.824Zm0 0" style="stroke:none;fill-rule:nonzero;fill:#c40d1a;fill-opacity:1"/><path d="M17.934 19.934v-2.082h1.734v.453h-1.156v.336h.535q.38 0 .578.164.204.158.203.465a.58.58 0 0 1-.226.488q-.224.176-.633.176Zm.578-.422h.422q.14 0 .222-.059a.2.2 0 0 0 .078-.172q0-.217-.3-.218h-.422Zm2.308-.856h.965v.442h-.965Zm.04.824h1.085v.454h-1.664v-2.082h1.625v.453H20.86Zm1.656.489q-.059.002-.13-.008c-.042-.004-.09-.016-.136-.027l.031-.48q.043.006.078.007a.21.21 0 0 0 .188-.094.7.7 0 0 0 .086-.273c.015-.117.027-.258.031-.414l.031-.828h1.672v2.082h-.578v-1.747l.125.13h-.836l.117-.137-.015.476q-.007.306-.043.547-.03.245-.102.414a.6.6 0 0 1-.2.266.54.54 0 0 1-.32.086m2.234-.035.918-2.082h.578l.922 2.082h-.613l-.72-1.793h.235l-.718 1.793Zm.504-.403.148-.437h1.016l.152.437Zm3.344.403v-.645l.14.121h-.523q-.282 0-.48-.094a.7.7 0 0 1-.313-.261.8.8 0 0 1-.106-.414q0-.246.11-.422a.77.77 0 0 1 .324-.274q.21-.093.492-.093h.938v2.082Zm-1.278 0 .52-.754h.59l-.492.754Zm1.278-.832v-.934l.14.148h-.484q-.17-.002-.262.079-.084.077-.086.238c0 .105.032.187.086.242.063.055.145.078.258.078h.488Zm2.187.832v-2.082h.95c.187 0 .35.027.488.09a.73.73 0 0 1 .32.269q.112.17.113.41-.001.234-.113.41a.75.75 0 0 1-.32.266 1.2 1.2 0 0 1-.489.094h-.625l.262-.258v.8Zm.586-.739-.262-.27h.59q.181 0 .27-.081a.28.28 0 0 0 .093-.223.28.28 0 0 0-.093-.226q-.089-.08-.27-.079h-.59l.262-.273Zm1.77.274a.7.7 0 0 0 .285.031c.078-.016.14-.062.199-.148l.102-.149.05-.058.645-1.293h.574l-.86 1.609c-.085.16-.187.281-.304.371a.75.75 0 0 1-.387.148.96.96 0 0 1-.441-.078Zm.629.148-.95-1.765h.617l.653 1.351Zm2.546.36q-.246-.001-.457-.079a1.1 1.1 0 0 1-.363-.226 1.1 1.1 0 0 1-.238-.34 1.17 1.17 0 0 1 0-.875q.087-.198.238-.344c.106-.097.223-.172.363-.222a1.3 1.3 0 0 1 .457-.082q.289.001.512.101a.94.94 0 0 1 .379.293l-.371.336a.9.9 0 0 0-.223-.18.56.56 0 0 0-.27-.062.7.7 0 0 0-.234.043.5.5 0 0 0-.183.12.6.6 0 0 0-.117.188.7.7 0 0 0 0 .489q.046.11.117.191.076.076.183.117a.7.7 0 0 0 .235.043.56.56 0 0 0 .27-.062.8.8 0 0 0 .222-.184l.371.34a1 1 0 0 1-.379.293q-.223.1-.512.102m2.364-1.461q.38-.002.59.168.21.168.21.507 0 .369-.234.555-.235.188-.64.188h-.985v-2.082h.578v.664Zm-.114.996a.33.33 0 0 0 .235-.082c.058-.051.09-.13.09-.227q-.001-.148-.09-.207a.4.4 0 0 0-.235-.062H38.2v.578Zm0 0" style="stroke:none;fill-rule:nonzero;fill:#488d07;fill-opacity:1"/><path d="M18.004 16.277v-3.254h3.043v3.254h-.906v-2.73l.203.207h-1.637l.2-.207v2.73Zm3.644 0 1.434-3.254h.902l1.434 3.254h-.953l-1.121-2.804h.363l-1.121 2.804Zm.782-.632.238-.68h1.586l.234.68Zm3.593.632v-3.254h1.48q.449-.001.767.145.325.141.5.418.175.27.175.64t-.175.637q-.175.27-.5.418c-.211.098-.47.145-.766.145h-.973l.41-.399v1.25Zm.918-1.152-.41-.422h.918q.29 0 .426-.129a.43.43 0 0 0 .145-.347q.001-.23-.145-.352-.136-.129-.426-.129h-.918l.41-.422Zm3.29 1.152v-2.73l.203.207h-1.2v-.73h2.891v.73H30.93l.203-.207v2.73Zm2.55 0v-3.254h.903v1.91l1.34-1.91h.859v3.254h-.903v-1.906l-1.335 1.906Zm5.844 0V15.27l.215.19h-.82q-.435-.002-.75-.144a1.1 1.1 0 0 1-.485-.414 1.2 1.2 0 0 1-.168-.644c0-.254.059-.477.176-.66q.181-.277.504-.426c.223-.102.476-.149.77-.149h1.46v3.254Zm-2 0 .813-1.175h.921l-.77 1.175Zm2-1.3V13.52l.215.226h-.754q-.27 0-.406.129-.136.118-.137.371.001.247.137.375c.09.086.222.125.398.125h.762Zm0 0" style="stroke:none;fill-rule:nonzero;fill:#c40d1a;fill-opacity:1"/><path d="M8.715 21.941v-4.593l-3.906-3.559a3.83 3.83 0 0 1-.434-5.187l-3.047 3.894a2.297 2.297 0 0 0 .281 3.129Zm0 0" style="stroke:none;fill-rule:nonzero;fill:#488d07;fill-opacity:1"/></svg>